#include "Arduino.h"
#include "pitches.h"
#include "keypad.h"

#define BUZZER_PIN 13

#define REST 1

const byte ROWS = 4;
const byte COLS = 4;

char keys[ROWS][COLS] = {
  {'1','2','3','A'},
  {'4','5','6','B'},
  {'7','8','9','C'},
  {'*','0','#','D'}
};

byte rowPins[ROWS] = {9, 8, 7, 6};
byte colPins[COLS] = {5, 4, 3, 2};

Keypad keypad = Keypad(makeKeymap(keys), rowPins, colPins, ROWS, COLS);


int piratesOfTheCarribean_melody[] = {
  NOTE_E4, NOTE_G4, NOTE_A4, NOTE_A4, REST,
  NOTE_A4, NOTE_B4, NOTE_C5, NOTE_C5, REST,
  NOTE_C5, NOTE_D5, NOTE_B4, NOTE_B4, REST,
  NOTE_A4, NOTE_G4, NOTE_A4, REST,
  
  NOTE_E4, NOTE_G4, NOTE_A4, NOTE_A4, REST,
  NOTE_A4, NOTE_B4, NOTE_C5, NOTE_C5, REST,
  NOTE_C5, NOTE_D5, NOTE_B4, NOTE_B4, REST,
  NOTE_A4, NOTE_G4, NOTE_A4, REST,
  
  NOTE_E4, NOTE_G4, NOTE_A4, NOTE_A4, REST,
  NOTE_A4, NOTE_C5, NOTE_D5, NOTE_D5, REST,
  NOTE_D5, NOTE_E5, NOTE_F5, NOTE_F5, REST,
  NOTE_E5, NOTE_D5, NOTE_E5, NOTE_A4, REST,
  
  NOTE_A4, NOTE_B4, NOTE_C5, NOTE_C5, REST,
  NOTE_D5, NOTE_E5, NOTE_A4, REST,
  NOTE_A4, NOTE_C5, NOTE_B4, NOTE_B4, REST,
  NOTE_C5, NOTE_A4, NOTE_B4, REST,
  
  NOTE_A4, NOTE_A4,
  //Repeat of first part
  NOTE_A4, NOTE_B4, NOTE_C5, NOTE_C5, REST,
  NOTE_C5, NOTE_D5, NOTE_B4, NOTE_B4, REST,
  NOTE_A4, NOTE_G4, NOTE_A4, REST,
  
  NOTE_E4, NOTE_G4, NOTE_A4, NOTE_A4, REST,
  NOTE_A4, NOTE_B4, NOTE_C5, NOTE_C5, REST,
  NOTE_C5, NOTE_D5, NOTE_B4, NOTE_B4, REST,
  NOTE_A4, NOTE_G4, NOTE_A4, REST,
  
  NOTE_E4, NOTE_G4, NOTE_A4, NOTE_A4, REST,
  NOTE_A4, NOTE_C5, NOTE_D5, NOTE_D5, REST,
  NOTE_D5, NOTE_E5, NOTE_F5, NOTE_F5, REST,
  NOTE_E5, NOTE_D5, NOTE_E5, NOTE_A4, REST,
  
  NOTE_A4, NOTE_B4, NOTE_C5, NOTE_C5, REST,
  NOTE_D5, NOTE_E5, NOTE_A4, REST,
  NOTE_A4, NOTE_C5, NOTE_B4, NOTE_B4, REST,
  NOTE_C5, NOTE_A4, NOTE_B4, REST,
  //End of Repeat
  
  NOTE_E5, REST, REST, NOTE_F5, REST, REST,
  NOTE_E5, NOTE_E5, REST, NOTE_G5, REST, NOTE_E5, NOTE_D5, REST, REST,
  NOTE_D5, REST, REST, NOTE_C5, REST, REST,
  NOTE_B4, NOTE_C5, REST, NOTE_B4, REST, NOTE_A4,
  
  NOTE_E5, REST, REST, NOTE_F5, REST, REST,
  NOTE_E5, NOTE_E5, REST, NOTE_G5, REST, NOTE_E5, NOTE_D5, REST, REST,
  NOTE_D5, REST, REST, NOTE_C5, REST, REST,
  NOTE_B4, NOTE_C5, REST, NOTE_B4, REST, NOTE_A4
};

int piratesOfTheCarribean_durations[] = {
  8, 8, 4, 8, 8,
  8, 8, 4, 8, 8,
  8, 8, 4, 8, 8,
  8, 8, 4, 8,
  
  8, 8, 4, 8, 8,
  8, 8, 4, 8, 8,
  8, 8, 4, 8, 8,
  8, 8, 4, 8,
  
  8, 8, 4, 8, 8,
  8, 8, 4, 8, 8,
  8, 8, 4, 8, 8,
  8, 8, 8, 4, 8,
  
  8, 8, 4, 8, 8,
  4, 8, 4, 8,
  8, 8, 4, 8, 8,
  8, 8, 4, 4,
  
  4, 8,
  //Repeat of First Part
  8, 8, 4, 8, 8,
  8, 8, 4, 8, 8,
  8, 8, 4, 8,
  
  8, 8, 4, 8, 8,
  8, 8, 4, 8, 8,
  8, 8, 4, 8, 8,
  8, 8, 4, 8,
  
  8, 8, 4, 8, 8,
  8, 8, 4, 8, 8,
  8, 8, 4, 8, 8,
  8, 8, 8, 4, 8,
  
  8, 8, 4, 8, 8,
  4, 8, 4, 8,
  8, 8, 4, 8, 8,
  8, 8, 4, 4,
  //End of Repeat
  
  4, 8, 4, 4, 8, 4,
  8, 8, 8, 8, 8, 8, 8, 8, 4,
  4, 8, 4, 4, 8, 4,
  8, 8, 8, 8, 8, 2,
  
  4, 8, 4, 4, 8, 4,
  8, 8, 8, 8, 8, 8, 8, 8, 4,
  4, 8, 4, 4, 8, 4,
  8, 8, 8, 8, 8, 2
};

int Nokia_melody[] = {
  NOTE_E5, NOTE_D5, NOTE_FS4, NOTE_GS4, 
  NOTE_CS5, NOTE_B4, NOTE_D4, NOTE_E4, 
  NOTE_B4, NOTE_A4, NOTE_CS4, NOTE_E4,
  NOTE_A4
};

int Nokia_durations[] = {
  8, 8, 4, 4,
  8, 8, 4, 4,
  8, 8, 4, 4,
  2
};

int shapeOfYou_melody[] = {
  NOTE_CS4, NOTE_E4, NOTE_CS4, NOTE_CS4, NOTE_E4,
  NOTE_CS4, NOTE_CS4, NOTE_E4, NOTE_CS4, NOTE_DS4,
  NOTE_CS4, NOTE_CS4, NOTE_E4, NOTE_CS4,
  NOTE_B3,
  NOTE_CS4, NOTE_E4, NOTE_CS4, NOTE_CS4, NOTE_E4,
  NOTE_CS4, NOTE_DS4, NOTE_CS4, NOTE_E4,
  NOTE_B3,
  NOTE_E4, NOTE_E4, NOTE_E4, NOTE_E4, NOTE_E4, NOTE_E4, NOTE_E4, NOTE_E4, NOTE_E4,
  NOTE_E4, NOTE_E4, NOTE_E4, NOTE_E4, NOTE_FS4, NOTE_GS4, NOTE_GS4,
  NOTE_GS4, NOTE_E4, NOTE_FS4, NOTE_B4, NOTE_GS4, NOTE_GS4, NOTE_GS4, NOTE_GS4, NOTE_GS4,
  NOTE_FS4, NOTE_FS4, NOTE_FS4, NOTE_GS4, NOTE_FS4, NOTE_FS4, NOTE_FS4, NOTE_FS4, NOTE_FS4, NOTE_GS4, NOTE_FS4,
  NOTE_E4, NOTE_CS4, NOTE_CS4, NOTE_GS4, NOTE_GS4,
  NOTE_GS4, NOTE_GS4, NOTE_GS4, NOTE_GS4, NOTE_GS4, NOTE_GS4, NOTE_GS4, NOTE_GS4, NOTE_GS4,
  NOTE_GS4, NOTE_B4, NOTE_GS4, NOTE_GS4, NOTE_FS4, NOTE_FS4, NOTE_E4, NOTE_GS4,
  NOTE_FS4, NOTE_E4, NOTE_E4, NOTE_E4, NOTE_B4, NOTE_GS4, NOTE_GS4, NOTE_GS4, NOTE_FS4,
  NOTE_FS4, NOTE_FS4, NOTE_FS4, NOTE_FS4, NOTE_FS4, NOTE_FS4, NOTE_FS4, NOTE_FS4,
  NOTE_E4, NOTE_CS4, NOTE_CS4, NOTE_CS4, NOTE_CS4, NOTE_CS4,
  NOTE_GS3, NOTE_B3,
  NOTE_CS4, NOTE_CS4, NOTE_FS4, NOTE_GS4, NOTE_E4, NOTE_FS4,
  NOTE_B3,
  NOTE_E4, NOTE_FS4, NOTE_GS4, NOTE_FS4, NOTE_E4, NOTE_CS4, NOTE_E4, NOTE_GS4,
  NOTE_FS4, NOTE_E4, NOTE_FS4, NOTE_CS4, NOTE_B4, NOTE_GS4, NOTE_GS4, NOTE_FS4, NOTE_FS4,
  NOTE_E4, NOTE_CS4, NOTE_E4, NOTE_FS4, NOTE_GS4, NOTE_FS4, NOTE_E4,
  NOTE_FS4, NOTE_E4, NOTE_CS4, NOTE_CS4,
  NOTE_B3,
  NOTE_CS4, NOTE_CS4, NOTE_FS4, NOTE_GS4, NOTE_E4, NOTE_FS4, NOTE_FS4,
  NOTE_B3,
  NOTE_FS4, NOTE_GS4, NOTE_FS4, NOTE_E4, NOTE_CS4, NOTE_E4, NOTE_GS4, NOTE_FS4,
  NOTE_E4, NOTE_FS4, NOTE_CS4, NOTE_B4, NOTE_GS4, NOTE_GS4, NOTE_FS4, NOTE_FS4, NOTE_E4,
  NOTE_CS4, NOTE_B4, NOTE_GS4, NOTE_GS4, NOTE_FS4, NOTE_FS4, NOTE_E4,
  NOTE_CS4, NOTE_CS4,
  NOTE_GS3, NOTE_B3,
  NOTE_E4, NOTE_FS4, NOTE_GS4, NOTE_FS4, NOTE_E4, NOTE_E4, NOTE_E4, NOTE_FS4, NOTE_FS4,
  NOTE_E4, NOTE_FS4, NOTE_GS4, NOTE_FS4, NOTE_E4, NOTE_E4, NOTE_E4, NOTE_FS4|
  NOTE_CS4, NOTE_E4, NOTE_FS4, NOTE_GS4, NOTE_CS4,
  NOTE_E4, NOTE_E4, NOTE_FS4, NOTE_FS4, NOTE_E4, NOTE_FS4, NOTE_GS4,
  NOTE_FS4, NOTE_E4, NOTE_E4, NOTE_FS4, NOTE_CS4, NOTE_CS4,
  NOTE_FS4, NOTE_GS4, NOTE_B4, NOTE_GS4, NOTE_FS4, NOTE_E4, NOTE_E4, NOTE_FS4,
  NOTE_E4, NOTE_FS4, NOTE_GS4, NOTE_FS4, NOTE_E4, NOTE_E4, NOTE_FS4,
  NOTE_CS4, NOTE_CS4, NOTE_CS4, NOTE_CS4, NOTE_CS4, NOTE_E4, NOTE_FS4, NOTE_GS4, NOTE_CS4, NOTE_E4,
  NOTE_FS4, NOTE_E4, NOTE_FS4, NOTE_E4, NOTE_FS4, NOTE_GS4,
  NOTE_FS4, NOTE_E4, NOTE_E4, NOTE_FS4, NOTE_CS4, NOTE_CS4, NOTE_CS4, NOTE_E4, NOTE_E4,
  NOTE_FS4, NOTE_FS4, NOTE_GS4, NOTE_GS4,
  NOTE_E4, NOTE_FS4, NOTE_GS4, NOTE_FS4, NOTE_E4, NOTE_E4, NOTE_FS4, NOTE_CS4, NOTE_CS4,
  NOTE_CS4, NOTE_E4, NOTE_E4, NOTE_FS4, NOTE_FS4, NOTE_GS4,
  NOTE_GS4, NOTE_E4, NOTE_FS4, NOTE_GS4, NOTE_FS4,
  NOTE_E4, NOTE_E4, NOTE_FS4, NOTE_CS4, NOTE_CS4, NOTE_CS4, NOTE_E4, NOTE_E4,
  NOTE_FS4, NOTE_FS4, NOTE_GS4, NOTE_GS4,
  NOTE_E4, NOTE_FS4, NOTE_GS4, NOTE_FS4, NOTE_E4, NOTE_E4, NOTE_FS4, NOTE_CS4, NOTE_CS4,
  NOTE_CS4, NOTE_CS4, NOTE_CS4, NOTE_CS4, NOTE_E4, NOTE_FS4, NOTE_GS4, NOTE_CS4, NOTE_E4, NOTE_FS4,
  NOTE_CS4,
};

int shapeOfYou_durations[] = {
  2,2,4,2,2,4,2,2,4,2,2,2,2,2,2,2,2,4,2,2,4,2,2,2,2,8,8,4,4,8,8,8,8,8,8,8,2,8,8,4,2,8,8,4,8,8,8,4,4,8,8,8,8,8,4,8,4,8,8,8,8,4,2,8,8,8,8,4,8,8,8,8,8,8,2,8,4,8,8,8,8,8,2,4,8,8,2,4,8,8,8,8,8,8,2,8,8,4,4,4,8,8,2,4,4,2,4,2,2,4,8,8,8,2,2,8,4,8,4,4,4,4,8,8,8,8,2,8,8,4,8,8,4,2,8,4,8,4,4,4,4,2,2,2,2,4,8,8,8,2,2,2,4,8,4,4,4,4,8,8,8,8,2,8,8,4,8,8,4,2,8,8,4,8,8,4,2,2,4,2,8,8,4,8,8,4,8,8,2,8,8,4,8,8,4,8,8,2,8,8,4,4,4,8,8,2,8,8,4,8,8,8,4,8,2,4,4,8,8,4,4,8,2,8,8,4,4,4,8,8,4,8,8,8,8,8,8,4,4,4,4,8,2,8,8,4,8,8,8,4,8,4,4,4,4,4,4,4,2,8,8,4,8,8,8,4,8,4,4,4,4,4,4,4,2,8,8,4,8,8,8,4,8,4,4,4,4,4,4,4,2,8,8,4,8,8,8,4,8,4,8,8,8,8,8,8,4,4,4,4,2
};


void setup()
{
  Serial.begin(115200);
  pinMode(BUZZER_PIN, OUTPUT);
}

void piratesOfTheCarribean();
void nokiaSong();
void shapeOfYou();

void loop()
{
  char key = keypad.getKey();

  switch(key){
    Serial.println(key);
    case '0':
      piratesOfTheCarribean();
      break;
    case '1':
      break;
    case '2':
      break;
    case '3':
      break;
    case '4':
      break;
    case '5':
      break;
    case '6':
      break;
    case '7':
      break;
    case '8':
      break;
    case '9':
      nokiaSong();
      break;
    case 'A':
      break;
    case 'B':
      break;
    case 'C':
      break;
    case 'D':
      break;
    case '*':
      shapeOfYou();
      break;
    case '#':
      break;
  }

}

void piratesOfTheCarribean(){
  int size = sizeof(piratesOfTheCarribean_durations) / sizeof(int);

  for (int note = 0; note < size; note++) {
    int duration = 1000 / piratesOfTheCarribean_durations[note];
    tone(BUZZER_PIN, piratesOfTheCarribean_melody[note], duration);

    int pauseBetweenNotes = duration * 1.30;
    delay(pauseBetweenNotes);

    noTone(BUZZER_PIN);
  }
}

void nokiaSong(){
  int size = sizeof(Nokia_durations) / sizeof(int);

  for (int note = 0; note < size; note++) {
    int duration = 1000 / Nokia_durations[note];
    tone(BUZZER_PIN, Nokia_melody[note], duration);

    int pauseBetweenNotes = duration * 1.30;
    delay(pauseBetweenNotes);

    noTone(BUZZER_PIN);
  }
}

void shapeOfYou(){
  int size = sizeof(shapeOfYou_durations) / sizeof(int);

  for (int note = 0; note < size; note++) {
    int duration = 1000 / shapeOfYou_durations[note];
    tone(BUZZER_PIN, shapeOfYou_melody[note], duration);

    int pauseBetweenNotes = duration * 1.30;
    delay(pauseBetweenNotes);

    noTone(BUZZER_PIN);
  }
}
